<mxfile host="app.diagrams.net" modified="2024-06-02T16:38:45.188Z" agent="Mozilla/5.0 (X11; Linux x86_64) AppleWebKit/537.36 (KHTML, like Gecko) Chrome/120.0.0.0 Safari/537.36" etag="vIwVaaTPVClB3XpO054p" version="24.4.13" type="github">
  <diagram name="Page-1" id="d9b1e647-80fa-b4a2-5024-87a742678bcc">
    <mxGraphModel dx="1434" dy="786" grid="0" gridSize="10" guides="1" tooltips="1" connect="1" arrows="1" fold="1" page="1" pageScale="1" pageWidth="1100" pageHeight="850" background="none" math="0" shadow="0">
      <root>
        <mxCell id="0" />
        <mxCell id="1" parent="0" />
        <mxCell id="57fe6abec08f04cb-7" value="End State Product Template" style="text;html=1;strokeColor=none;fillColor=#61BAFF;align=center;verticalAlign=middle;whiteSpace=wrap;fontSize=54;fontStyle=1;fontColor=#004D99;" parent="1" vertex="1">
          <mxGeometry x="120" y="80" width="840" height="120" as="geometry" />
        </mxCell>
        <mxCell id="NF_KatxpQjcDc2aW0d6Z-2" value="&lt;div style=&quot;text-align: justify;&quot;&gt;&lt;span style=&quot;background-color: initial;&quot;&gt;&lt;font color=&quot;#5b758f&quot; style=&quot;font-size: 18px;&quot;&gt;An exemplar Project&lt;/font&gt;&lt;/span&gt;&lt;br&gt;&lt;/div&gt;" style="text;html=1;strokeColor=#82b366;fillColor=#d5e8d4;align=center;verticalAlign=middle;whiteSpace=wrap;fontSize=54;fontStyle=1;dashed=1;" vertex="1" parent="1">
          <mxGeometry x="425" y="180" width="230" height="60" as="geometry" />
        </mxCell>
        <mxCell id="NF_KatxpQjcDc2aW0d6Z-6" style="edgeStyle=orthogonalEdgeStyle;rounded=0;orthogonalLoop=1;jettySize=auto;html=1;entryX=0.5;entryY=1;entryDx=0;entryDy=0;endArrow=none;endFill=0;" edge="1" parent="1" source="NF_KatxpQjcDc2aW0d6Z-3" target="NF_KatxpQjcDc2aW0d6Z-10">
          <mxGeometry relative="1" as="geometry" />
        </mxCell>
        <mxCell id="NF_KatxpQjcDc2aW0d6Z-8" style="edgeStyle=orthogonalEdgeStyle;rounded=0;orthogonalLoop=1;jettySize=auto;html=1;entryX=0.5;entryY=1;entryDx=0;entryDy=0;endArrow=none;endFill=0;" edge="1" parent="1" source="NF_KatxpQjcDc2aW0d6Z-3" target="NF_KatxpQjcDc2aW0d6Z-12">
          <mxGeometry relative="1" as="geometry">
            <mxPoint x="840" y="520" as="targetPoint" />
          </mxGeometry>
        </mxCell>
        <mxCell id="NF_KatxpQjcDc2aW0d6Z-3" value="&lt;font style=&quot;font-size: 15px;&quot;&gt;&lt;b&gt;As Is Current State&lt;/b&gt;&lt;/font&gt;" style="rounded=1;whiteSpace=wrap;html=1;fillColor=#f8cecc;strokeColor=#b85450;" vertex="1" parent="1">
          <mxGeometry x="460" y="680" width="160" height="80" as="geometry" />
        </mxCell>
        <mxCell id="NF_KatxpQjcDc2aW0d6Z-7" style="edgeStyle=orthogonalEdgeStyle;rounded=0;orthogonalLoop=1;jettySize=auto;html=1;entryX=0.25;entryY=1;entryDx=0;entryDy=0;exitX=0.5;exitY=0;exitDx=0;exitDy=0;" edge="1" parent="1" source="NF_KatxpQjcDc2aW0d6Z-5" target="NF_KatxpQjcDc2aW0d6Z-2">
          <mxGeometry relative="1" as="geometry" />
        </mxCell>
        <mxCell id="NF_KatxpQjcDc2aW0d6Z-5" value="Technology Display for Art of the Possible" style="text;html=1;align=center;verticalAlign=middle;whiteSpace=wrap;rounded=0;" vertex="1" parent="1">
          <mxGeometry x="160" y="320" width="160" height="40" as="geometry" />
        </mxCell>
        <mxCell id="NF_KatxpQjcDc2aW0d6Z-11" style="edgeStyle=orthogonalEdgeStyle;rounded=0;orthogonalLoop=1;jettySize=auto;html=1;entryX=0.5;entryY=1;entryDx=0;entryDy=0;endArrow=none;endFill=0;" edge="1" parent="1" source="NF_KatxpQjcDc2aW0d6Z-10" target="NF_KatxpQjcDc2aW0d6Z-5">
          <mxGeometry relative="1" as="geometry" />
        </mxCell>
        <mxCell id="NF_KatxpQjcDc2aW0d6Z-10" value="Use of available open source technology &amp;amp; tools to build something useful and important." style="rounded=0;whiteSpace=wrap;html=1;fillColor=#fff2cc;strokeColor=#d6b656;" vertex="1" parent="1">
          <mxGeometry x="120" y="480" width="240" height="80" as="geometry" />
        </mxCell>
        <mxCell id="NF_KatxpQjcDc2aW0d6Z-14" value="" style="edgeStyle=orthogonalEdgeStyle;rounded=0;orthogonalLoop=1;jettySize=auto;html=1;entryX=0.5;entryY=1;entryDx=0;entryDy=0;endArrow=none;endFill=0;" edge="1" parent="1" source="NF_KatxpQjcDc2aW0d6Z-12" target="NF_KatxpQjcDc2aW0d6Z-15">
          <mxGeometry relative="1" as="geometry">
            <mxPoint x="840" y="390" as="targetPoint" />
          </mxGeometry>
        </mxCell>
        <mxCell id="NF_KatxpQjcDc2aW0d6Z-12" value="The inner model or search within of the person." style="rounded=0;whiteSpace=wrap;html=1;fillColor=#e1d5e7;strokeColor=#9673a6;" vertex="1" parent="1">
          <mxGeometry x="720" y="480" width="240" height="80" as="geometry" />
        </mxCell>
        <mxCell id="NF_KatxpQjcDc2aW0d6Z-16" style="edgeStyle=orthogonalEdgeStyle;rounded=0;orthogonalLoop=1;jettySize=auto;html=1;entryX=0.75;entryY=1;entryDx=0;entryDy=0;exitX=0.5;exitY=0;exitDx=0;exitDy=0;" edge="1" parent="1" source="NF_KatxpQjcDc2aW0d6Z-15" target="NF_KatxpQjcDc2aW0d6Z-2">
          <mxGeometry relative="1" as="geometry" />
        </mxCell>
        <mxCell id="NF_KatxpQjcDc2aW0d6Z-15" value="Collective spiritual awakening or &#39;unity&#39; consciousness" style="text;html=1;align=center;verticalAlign=middle;whiteSpace=wrap;rounded=0;" vertex="1" parent="1">
          <mxGeometry x="755" y="325" width="170" height="30" as="geometry" />
        </mxCell>
        <mxCell id="NF_KatxpQjcDc2aW0d6Z-17" value="" style="endArrow=none;dashed=1;html=1;dashPattern=1 3;strokeWidth=2;rounded=0;exitX=1;exitY=0.5;exitDx=0;exitDy=0;entryX=0;entryY=0.5;entryDx=0;entryDy=0;" edge="1" parent="1" source="NF_KatxpQjcDc2aW0d6Z-10" target="NF_KatxpQjcDc2aW0d6Z-18">
          <mxGeometry width="50" height="50" relative="1" as="geometry">
            <mxPoint x="425" y="537" as="sourcePoint" />
            <mxPoint x="475" y="487" as="targetPoint" />
          </mxGeometry>
        </mxCell>
        <mxCell id="NF_KatxpQjcDc2aW0d6Z-18" value="Bridge between the two" style="text;html=1;align=center;verticalAlign=middle;whiteSpace=wrap;rounded=0;" vertex="1" parent="1">
          <mxGeometry x="468" y="505" width="137" height="30" as="geometry" />
        </mxCell>
        <mxCell id="NF_KatxpQjcDc2aW0d6Z-20" value="" style="endArrow=none;dashed=1;html=1;dashPattern=1 3;strokeWidth=2;rounded=0;exitX=1;exitY=0.5;exitDx=0;exitDy=0;entryX=0;entryY=0.5;entryDx=0;entryDy=0;" edge="1" parent="1" source="NF_KatxpQjcDc2aW0d6Z-18" target="NF_KatxpQjcDc2aW0d6Z-12">
          <mxGeometry width="50" height="50" relative="1" as="geometry">
            <mxPoint x="559" y="427" as="sourcePoint" />
            <mxPoint x="609" y="377" as="targetPoint" />
          </mxGeometry>
        </mxCell>
      </root>
    </mxGraphModel>
  </diagram>
</mxfile>
